<?xml version="1.0" encoding="utf-8"?>
<!-- Generator: Adobe Illustrator 26.0.2, SVG Export Plug-In . SVG Version: 6.00 Build 0)  -->
<svg version="1.1" id="Layer_1" xmlns="http://www.w3.org/2000/svg" xmlns:xlink="http://www.w3.org/1999/xlink" x="0px" y="0px"
	 viewBox="0 0 1960 2100.4" enable-background="new 0 0 1960 2100.4" xml:space="preserve">
<rect fill="#6B37F7" width="1960" height="2100.4"/>
<g>
	<path fill="#FFFFFF" d="M243.4,240.3H353c65.9,0,102.1,34,102.1,96.2c0,65.3-39.7,106.8-102.1,106.8H243.4v-13.1
		c23.4-2.8,28.1-6.9,28.1-24.7V278.1c0-17.8-4.7-21.9-28.1-24.7V240.3z M297.4,259v165.5h53.7c49.6,0,78.1-30.3,78.1-80.9
		c0-52.5-30.3-84.6-78.1-84.6H297.4z"/>
	<path fill="#FFFFFF" d="M483.9,240.3h166.7v47.8h-13.1c-2.5-25-15-29-34-29h-65.6v56.5h109.6l-4.7,18.7H537.9v90.2h68.4
		c19,0,31.5-6.2,34-34.3h13.1v53.1H483.9v-13.1c21.9-2.5,28.1-5.6,28.1-24.7V278.1c0-19-6.2-22.2-28.1-24.7V240.3z"/>
	<path fill="#FFFFFF" d="M741.5,424.5h65.3c19,0,28.4-12.5,30.9-40.6h13.1v59.3H687.4v-13.1c21.9-2.5,28.1-5.6,28.1-24.7V278.1
		c0-19-6.2-22.2-28.1-24.7v-13.1h85.2v13.1c-24.7,2.5-31.2,6.2-31.2,24.7V424.5z"/>
	<path fill="#FFFFFF" d="M1029.3,275l-63.1,168.3h-34L866.7,275c-5.6-14.7-10-20.3-28.4-21.5v-13.1h82.1v13.1
		c-25,0.9-32.2,5.3-26.5,19.7l58.7,150.2h1.2l55-150.2c5.3-14.4-4.7-18.7-29.7-19.7v-13.1h78.7v13.1
		C1039,255.6,1035,260.3,1029.3,275z"/>
	<path fill="#FFFFFF" d="M1075.5,408.6l42.8-130.5c6.2-19,1.9-23.4-20.6-24.7v-13.1h122.1v13.1c-23.4,1.2-26.9,5.3-20.9,24.7
		l40.6,130.5c4.7,15,10,20.3,28.4,21.5v13.1h-82.1v-13.1c25-0.9,30.9-5.3,26.5-19.7l-7.8-26.2h-99.6l-8.1,26.2
		c-4.4,14.4,4.7,18.7,29.7,19.7v13.1h-79.3v-13.1C1065.9,428,1070.6,423.6,1075.5,408.6z M1198.9,365.5L1167,259h-22.8l-33.4,106.5
		H1198.9z"/>
	<path fill="#FFFFFF" d="M1373.7,430.1v13.1h-85.9v-13.1c21.9-2.5,28.1-5.6,28.1-24.7V278.1c0-17.8-4.7-21.9-28.1-24.7v-13.1h110.5
		c44.7,0,64.9,19,64.9,50.6c0,35.9-26.5,55.6-61.5,61.2c3.4,3.4,6.9,7.2,10,10.9l68.1,75.2l-20.9,17.2l-84-97.1l-33.1,3.7v43.4
		C1341.9,423.9,1349.1,427.7,1373.7,430.1z M1341.9,259v84.6l48.7-5c28.4-2.8,45.6-15.9,45.6-41.2c0-24.7-13.4-38.4-39-38.4H1341.9z
		"/>
	<path fill="#FFFFFF" d="M1503,240.3h109.6c65.9,0,102.1,34,102.1,96.2c0,65.3-39.7,106.8-102.1,106.8H1503v-13.1
		c23.4-2.8,28.1-6.9,28.1-24.7V278.1c0-17.8-4.7-21.9-28.1-24.7V240.3z M1557,259v165.5h53.7c49.6,0,78.1-30.3,78.1-80.9
		c0-52.5-30.3-84.6-78.1-84.6H1557z"/>
	<path fill="#FFFFFF" d="M550,728.3v-50.9h13.1c5,32.8,22.5,42.2,46.8,42.2c28.7,0,51.8-12.8,51.8-36.2c0-23.7-24.4-32.2-50.6-40.9
		c-30.6-10.3-63.7-21.5-63.7-58.1c0-35.3,30.3-55.3,73.7-55.3c17.2,0,38.4,3.1,57.5,10V590h-13.1c-5-32.5-22.8-42.2-47.8-42.2
		c-29.4,0-43.1,13.1-43.1,31.2c0,23.1,22.8,31.2,48.4,40c31.2,10.6,65.9,22.5,65.9,61.8c0,40.6-37.5,57.5-79.6,57.5
		C591,738.3,569.7,735.2,550,728.3z"/>
	<path fill="#FFFFFF" d="M720.8,532.5h166.7v47.8h-13.1c-2.5-25-15-29-34-29h-65.6v56.5h109.6l-4.7,18.7H774.9v90.2h68.4
		c19,0,31.5-6.2,34-34.3h13.1v53.1H720.8v-13.1c21.9-2.5,28.1-5.6,28.1-24.7V570.3c0-19-6.2-22.2-28.1-24.7V532.5z"/>
	<path fill="#FFFFFF" d="M1010.3,722.4v13.1h-85.9v-13.1c21.9-2.5,28.1-5.6,28.1-24.7V570.3c0-17.8-4.7-21.9-28.1-24.7v-13.1H1035
		c44.7,0,64.9,19,64.9,50.6c0,35.9-26.5,55.6-61.5,61.2c3.4,3.4,6.9,7.2,10,10.9l68.1,75.2l-20.9,17.2l-84-97.1l-33.1,3.7v43.4
		C978.4,716.1,985.6,719.9,1010.3,722.4z M978.4,551.3v84.6l48.7-5c28.4-2.8,45.6-15.9,45.6-41.2c0-24.7-13.4-38.4-39-38.4H978.4z"
		/>
	<path fill="#FFFFFF" d="M1221.7,722.4v13.1h-82.1v-13.1c21.9-2.5,28.1-5.6,28.1-24.7V570.3c0-19-6.2-22.2-28.1-24.7v-13.1h82.1
		v13.1c-21.5,2.5-28.1,6.2-28.1,24.7v127.4C1193.6,716.1,1200.1,719.9,1221.7,722.4z"/>
	<path fill="#FFFFFF" d="M1252,735.5v-13.1c23.4-2.8,28.1-6.9,28.1-24.7V570.3c0-17.8-4.7-21.9-28.1-24.7v-13.1h167.7v50.9h-13.1
		c-2.5-25-11.9-32.2-30.9-32.2H1306v59.6h110.5l-4.7,18.7H1306v64.9c0,21.9,5.3,25.3,40.6,27.8v13.1H1252z"/>
</g>
<g>
	<path fill="#FFFFFF" d="M287.4,1426.5l20.5-62.5c3-9.1,0.9-11.2-9.9-11.8v-6.3h58.5v6.3c-11.2,0.6-12.9,2.5-10,11.8l19.4,62.5
		c2.2,7.2,4.8,9.7,13.6,10.3v6.3h-39.3v-6.3c12-0.4,14.8-2.5,12.7-9.4l-3.7-12.6h-47.7l-3.9,12.6c-2.1,6.9,2.2,9,14.2,9.4v6.3h-38
		v-6.3C282.8,1435.8,285,1433.7,287.4,1426.5z M346.5,1405.9l-15.3-51h-10.9l-16,51H346.5z"/>
	<path fill="#FFFFFF" d="M389.1,1345.9H435c24.1,0,34.1,7,34.1,21.2c0,10.8-6,19.6-15.1,24.8c13.2,3.3,21.2,10.2,21.2,23
		c0,15.6-12.1,28.1-34.8,28.1h-51.3v-6.3c11.2-1.3,13.5-3.3,13.5-11.8v-61c0-8.5-2.2-10.5-13.5-11.8V1345.9z M415,1354.9v35.7
		l18.1-1.6c15.1-1.3,23-7,23-18.4c0-10.5-6.7-15.7-20.6-15.7H415z M415,1399.2v35h24.7c14.7,0,22.6-6.6,22.6-17.3
		c0-10.3-7.5-17.2-21.1-20.3c-1.3,0.3-2.7,0.4-4.2,0.6L415,1399.2z"/>
	<path fill="#FFFFFF" d="M503.6,1393.9c0,25.4,16,40.2,40.8,40.2c8.5,0,17.9-1.9,26-5.4l3,9.6c-9.3,4-20,6.3-31,6.3
		c-32,0-51.9-18.7-51.9-49.2c0-31.4,21.1-51,53.2-51c9.3,0,19,1.6,28.7,4.8v24.4h-6.3c-2.4-15.7-9.1-20.2-25.9-20.2
		C514.2,1353.4,503.6,1369.6,503.6,1393.9z"/>
	<path fill="#FFFFFF" d="M587.7,1345.9h52.5c31.5,0,48.9,16.3,48.9,46.1c0,31.2-19,51.1-48.9,51.1h-52.5v-6.3
		c11.2-1.3,13.5-3.3,13.5-11.8v-61c0-8.5-2.2-10.5-13.5-11.8V1345.9z M613.5,1354.9v79.2h25.7c23.8,0,37.4-14.5,37.4-38.7
		c0-25.1-14.5-40.5-37.4-40.5H613.5z"/>
	<path fill="#FFFFFF" d="M702.8,1345.9h79.8v22.9h-6.3c-1.2-12-7.2-13.9-16.3-13.9h-31.4v27.1h52.5l-2.2,9h-50.2v43.2h32.7
		c9.1,0,15.1-3,16.3-16.4h6.3v25.4h-81.2v-6.3c10.5-1.2,13.5-2.7,13.5-11.8v-61c0-9.1-3-10.6-13.5-11.8V1345.9z"/>
	<path fill="#FFFFFF" d="M800.3,1443.1v-6.3c11.2-1.3,13.5-3.3,13.5-11.8v-61c0-8.5-2.2-10.5-13.5-11.8v-6.3h80.3v24.4h-6.3
		c-1.2-12-5.7-15.4-14.8-15.4h-33.3v28.6h52.9l-2.2,9h-50.7v31.1c0,10.5,2.5,12.1,19.4,13.3v6.3H800.3z"/>
	<path fill="#FFFFFF" d="M907.3,1391.7c0,27.5,17.6,44,42.3,44c9.1,0,15.8-1.5,21.2-4.9v-40.2h-30.4l2.2-9h40.5v55.6
		c-9.1,4.5-22.9,7.5-35.9,7.5c-32.6,0-53.1-17.8-53.1-48.4c0-31.4,22-51.7,55-51.7c10.5,0,22.9,1.9,31.7,4.8v21.4h-6.3
		c-2.2-11.8-9.6-17.2-23.9-17.2C921.2,1353.4,907.3,1367,907.3,1391.7z"/>
	<path fill="#FFFFFF" d="M1040.4,1436.8v6.3h-39.3v-6.3c10.5-1.2,13.5-2.7,13.5-11.8v-61c0-9.1-3-10.6-13.5-11.8v-6.3h39.3v6.3
		c-10.3,1.2-13.5,3-13.5,11.8v17.3h58V1364c0-9.1-3-10.6-13.5-11.8v-6.3h39.3v6.3c-10.3,1.2-13.5,3-13.5,11.8v61
		c0,8.8,3.1,10.6,13.5,11.8v6.3h-39.3v-6.3c10.5-1.2,13.5-2.7,13.5-11.8v-34.7h-58v34.7C1027,1433.9,1030.1,1435.6,1040.4,1436.8z"
		/>
	<path fill="#FFFFFF" d="M1164.7,1436.8v6.3h-39.3v-6.3c10.5-1.2,13.5-2.7,13.5-11.8v-61c0-9.1-3-10.6-13.5-11.8v-6.3h39.3v6.3
		c-10.3,1.2-13.5,3-13.5,11.8v61C1151.2,1433.9,1154.3,1435.6,1164.7,1436.8z"/>
	<path fill="#FFFFFF" d="M1206.8,1414.4V1364c0-9-0.9-10.6-20.9-11.8v-6.3h45.3v6.3c-10,1.2-12,3.1-12,11.8v50.8
		c0,25.3-32.9,30.4-43.1,29.6l-1.3-12.7C1203.8,1431.8,1206.8,1429.5,1206.8,1414.4z"/>
	<path fill="#FFFFFF" d="M1285.2,1436.8v6.3h-40.8v-6.3c10.5-1.2,13.5-2.7,13.5-11.8v-61c0-9.1-3-10.6-13.5-11.8v-6.3h39.3v6.3
		c-10.3,1.2-13.5,3-13.5,11.8v32.4l39-35.3c5.4-4.8,3-8.7-6.9-9v-6.3h37.7v6.3c-7.6,0.4-12.1,4.2-17.8,9.1l-30.4,26.8l36.8,42.8
		c3.1,3.6,6.4,5.1,13.6,6v6.3h-39.8v-6.3c9.3-1.5,12.6-3.1,8.2-8.2l-27.8-32.6l-12.7,11.2v17.8
		C1270.2,1433.9,1273.4,1435.6,1285.2,1436.8z"/>
	<path fill="#FFFFFF" d="M1378.3,1434.2h31.2c9.1,0,13.6-6,14.8-19.4h6.3v28.4h-78.2v-6.3c10.5-1.2,13.5-2.7,13.5-11.8v-61
		c0-9.1-3-10.6-13.5-11.8v-6.3h40.8v6.3c-11.8,1.2-15,3-15,11.8V1434.2z"/>
	<path fill="#FFFFFF" d="M1481.6,1436.8v6.3h-38.3v-6.3c10.5-1.2,12-2.7,12-11.8v-61c0-8.8-1-10.6-14.1-11.8v-6.3h31.5l29.8,49
		l28.4-49h31v6.3c-13,1.2-14.1,3-14.1,11.8v61c0,8.8,3.1,10.6,13.5,11.8v6.3H1522v-6.3c10.5-1.2,13.5-2.7,13.5-11.8v-67.1h-0.7
		l-31.4,53.4h-5.7l-32.3-53.7h-0.7v65.9C1464.6,1434.5,1467.1,1435.6,1481.6,1436.8z"/>
	<path fill="#FFFFFF" d="M1616.1,1436.8v6.3h-38.3v-6.3c10.5-1.2,12-2.7,12-11.8v-61c0-8.8-2.5-10.6-15.5-11.8v-6.3h30.4l54.4,80.7
		h1V1364c0-8.8-4-10.6-17-11.8v-6.3h38.3v6.3c-10.5,1.2-12,2.7-12,11.8v79.1l-13.5,1.2l-55.8-82.8h-1v63.5
		C1599,1433.9,1603.1,1435.6,1616.1,1436.8z"/>
	<path fill="#FFFFFF" d="M459.4,1540.8c0,31.5-25.3,56.4-56.8,56.4c-26.5,0-44.1-17.6-44.1-44.1c0-31.4,25.1-56.1,56.8-56.1
		C442.1,1497,459.4,1514.6,459.4,1540.8z M403.8,1588.2c23.6,0,42.2-19.9,42.2-46.4c0-21.7-12.6-35.9-32.6-35.9
		c-23.6,0-41.4,19.9-41.4,46.7C372,1574.4,383.9,1588.2,403.8,1588.2z"/>
	<path fill="#FFFFFF" d="M511.5,1589.4l-0.7,6.3h-44.4l0.7-6.3c11.1-1.3,13.6-3.3,14.7-11.8l7.5-61c1.3-9.9-1-10.5-11.8-11.8
		l0.7-6.3h48.1c19.7,0,30.4,8.4,30.4,25.4c0,19.1-13.5,32.4-35.6,34.1l-25.1,1.8l-1.9,16.3C492.8,1585.5,494.6,1588.2,511.5,1589.4z
		 M502.5,1507.4l-5.4,43.4l20.8-1c16.3-0.7,25.6-10.3,25.6-24.8c0-12-6.4-17.5-18.8-17.5H502.5z"/>
	<path fill="#FFFFFF" d="M570.2,1614.3l-1.6-8.2c16.1-4.8,29.8-9.6,41-14.5c-26-0.3-43.1-16.1-43.1-41.1c0-29.9,24.5-53.5,55.9-53.5
		c26.6,0,45.2,17,45.2,41c0,30.2-29.2,55.5-77.9,68.2h69.7l-3.4,12.7L570.2,1614.3z M614.5,1583.8c4.9,0,8.5-0.1,11.4-0.6
		c19.6-12,28-25.4,28-42.5c0-21.5-13.3-34.8-33.6-34.8c-24.1,0-40.2,18.8-40.2,43.4C580,1571.7,593.3,1583.8,614.5,1583.8z"/>
	<path fill="#FFFFFF" d="M688.8,1578.4l7.6-61.9c1-8.7-0.9-10.5-11.8-11.8l0.7-6.3h51.9c19.1,0,27.8,10.6,27.8,23.3
		c0,17-14.7,27.4-32.7,30.1c1.6,2.2,3.3,4.3,4.8,6.3l26.8,35.1l-10.2,8.1l-33.6-46.5l-16.4,1.9l-2.5,20.8
		c-1.2,10,2.2,10.6,13.5,11.8l-0.7,6.3h-40.2l0.7-6.3C684.3,1588.2,687.5,1586.8,688.8,1578.4z M709.7,1507.4l-5.1,40.5l23.2-2.4
		c15-1.5,24.1-11.2,24.1-23.3c0-9.6-5.5-14.8-16.3-14.8H709.7z"/>
	<path fill="#FFFFFF" d="M778.4,1592.4l3-24.4h6.1c0.4,14.5,7.6,20.2,20,20.2c15.6,0,26.2-9,26.2-19.3c0-7.3-5.5-12.4-21.5-18.1
		c-18.4-6.6-26.6-14.2-26.6-25.7c0-16.1,15.8-28.1,37.5-28.1c8.2,0,17.8,1.6,26.8,4.8l-3,24.4h-6.1c-0.4-14.5-7.5-20.2-19.9-20.2
		c-14.2,0-22.3,7.6-22.3,16.9c0,7.5,5.1,11.7,20.5,17.3c19.1,7,27.5,15.1,27.5,27.4c0,17.2-16.6,29.6-40.1,29.6
		C797.7,1597.1,787.2,1595.3,778.4,1592.4z"/>
	<path fill="#FFFFFF" d="M920.4,1595.6H876l0.7-6.3c13-1.2,16.4-2.5,17.5-11.1l8.8-70.9h-15.7c-9,0-13.9,4.5-16.9,19.4h-6.1
		l3.4-28.4h84.8l-3.4,28.4H943v-3.1c0-12.4-3.9-16.3-12.1-16.3h-15.7l-8.7,70.1c-1.2,8.4,1.8,10.6,14.7,11.8L920.4,1595.6z"/>
	<path fill="#FFFFFF" d="M1031.4,1498.5h37.7l-0.7,6.3c-10.5,1.2-12,2.7-13.2,11.8l-5.1,41.1c-2.7,21.7-15.1,39.5-45.5,39.5
		c-26.3,0-36.9-11.8-36.9-30.8c0-2.5,0.1-5.2,0.4-8.1l5.2-42.5c1-8.4-1.9-9.9-11.8-11.1l0.7-6.3h38.6l-0.7,6.3
		c-9.9,1.2-13.5,2.8-14.5,10.9l-5.1,41c-0.3,2.7-0.4,5.1-0.4,7.5c0,16.1,8.1,23.8,25.3,23.8c19.3,0,33-10,35.9-32.7l4.9-39.3
		c0.9-7.2-3.3-9.9-15.5-11.1L1031.4,1498.5z"/>
	<path fill="#FFFFFF" d="M1162.8,1515l-39.5,80.6h-15.1L1087,1515c-1.8-7-3.6-9.7-12.1-10.3l0.7-6.3h37.7l-0.7,6.3
		c-12.3,0.6-14.8,2.8-13.2,9.4l18.7,71.9h0.6l34.5-71.9c3.1-6.7-0.7-9-12.7-9.4l0.7-6.3h36.9l-0.7,6.3
		C1168.5,1505.8,1166.4,1508,1162.8,1515z"/>
	<path fill="#FFFFFF" d="M1312.2,1515l-31.7,80.6H1264l-13.5-64l-29,64h-16.4l-11.7-80.6c-1-7-3.6-9.7-12.1-10.3l0.7-6.3h38
		l-0.7,6.3c-10.5,0.4-14.7,1.8-13.6,9.6l10.2,71.8h0.4l31.5-67.9l-0.7-3.1c-1.5-7-3.4-9.7-12-10.3l0.7-6.3h37.8l-0.7,6.3
		c-10.2,0.4-15.4,1.5-13.8,9.4l15.3,71.9h0.4l27.5-71.9c2.5-6.6-1-9-12.9-9.4l0.7-6.3h37.1l-0.7,6.3
		C1317.8,1505.8,1314.9,1508,1312.2,1515z"/>
	<path fill="#FFFFFF" d="M1411,1589.4l-0.7,6.3h-37.5l0.7-6.3c9.1-0.3,12.4-1.8,12.4-4.6c0-1.3-0.6-2.8-1.6-4.8l-15.1-26.3
		l-21.1,26.3c-1.5,1.8-2.2,3.4-2.2,4.6c0,3,3.7,4.5,11.8,4.8l-0.7,6.3h-34.4l0.7-6.3c6.9-1,9.3-4,14.7-10.3l27.4-32.3L1347,1515
		c-3.6-6.3-7-9.7-13.3-10.3l0.7-6.3h36.2l-0.7,6.3c-8.5,0.3-11.4,1.5-11.4,4c0,1.5,0.9,3.1,2.1,5.4l14.1,24.5l19.6-24.5
		c1.5-1.8,2.2-3.4,2.2-4.6c0-3-3.7-4.5-11.8-4.8l0.7-6.3h34.4l-0.7,6.3c-7.6,1-9.3,4-14.7,10.3l-26,30.1l19.4,33.9
		C1401.4,1585.3,1404.6,1588.8,1411,1589.4z"/>
	<path fill="#FFFFFF" d="M1486.7,1595.6h-44.4l0.7-6.3c13.3-1.2,16.3-2.7,17.5-11.8l2.5-20.2l-23.6-42.3c-3.7-6.6-5.4-9.7-12.1-10.3
		l0.7-6.3h37.1l-0.7,6.3c-9.7,0.3-13.9,1.2-13.9,4c0,0.6,0.1,1.2,0.6,2.1l20.6,36.8h1.5l28.4-36.6c0.6-0.9,1-1.6,1-2.4
		c0-2.5-4.9-3.6-14.2-3.9l0.7-6.3h35.9l-0.7,6.3c-7,1.2-9.4,3.9-14.7,10.3l-34.7,43.4l-2.2,19.1c-1,8.4,1.6,10.6,14.7,11.8
		L1486.7,1595.6z"/>
	<path fill="#FFFFFF" d="M1588.5,1507.4h-32c-9.1,0-15,5.1-18.7,19.9h-6.1l3.4-28.9h72.2l0.4,4.6l-65.8,83.6h36.3
		c8.8,0,14.5-4.9,17.9-19.9h6.1l-3.6,28.9h-76l-0.6-4.5L1588.5,1507.4z"/>
	<path fill="#FFFFFF" d="M470.7,1739.6c1.9,0,4.8-0.7,6-1.3l-0.7,7.2c-2.8,2.8-6.7,4.2-10.5,4.2c-7,0-11.8-5.2-12.4-14.2
		c-9.4,9.4-19.4,14.2-29.9,14.2c-12.4,0-19.9-6.7-19.9-18.2c0-12.7,8.8-20.6,29.8-26.6l19.9-5.7v-2.8c0-9.6-7-14.1-21.2-14.1
		c-7.3,0-15.3,1.2-25,4.3l-1.5-10.8c9.7-3.4,18.8-4.8,28-4.8c21.4,0,31.8,7.5,31.8,23.2v40.1C465,1737.5,467.1,1739.6,470.7,1739.6z
		 M428.3,1739.3c7.9,0,16.9-4,24.7-11.1v-22.7l-17.6,5.7c-12.6,4-19.1,7.8-19.1,16.7C416.2,1734.5,420.6,1739.3,428.3,1739.3z"/>
	<path fill="#FFFFFF" d="M521.3,1749.7c-9.3,0-18.8-1.8-27.5-7.6v-71.6c0-9.4-3.4-12.6-13.6-12.6v-5.7l19.6-2.5
		c4.5-0.6,6.1,1,6.1,5.7v25.4c9.4-6.7,17.9-9.7,27.7-9.7c19.4,0,30.5,12.4,30.5,35.3C564,1734,547.7,1749.7,521.3,1749.7z
		 M505.9,1687.3v49.6c4.8,2.4,10.9,4,17.8,4c19.3,0,27.7-10.6,27.7-32.3c0-18.8-7.5-27.5-21.4-27.5
		C522,1681.2,513.2,1683.3,505.9,1687.3z"/>
	<path fill="#FFFFFF" d="M590.9,1706.7c0,21.1,10.6,32,28,32c6.7,0,16.4-1.6,23.6-4.2l1.8,5.8c-9.6,6.3-18.7,9.3-29,9.3
		c-22.9,0-37.1-14.2-37.1-37.7c0-24.7,15.8-41,39.5-41c7.2,0,14.8,1.5,23.6,4.8v24.4h-6.3c-1.9-15.1-6.9-20.5-19.4-20.5
		C600.7,1679.7,590.9,1687.9,590.9,1706.7z"/>
	<path fill="#FFFFFF" d="M700.4,1671c5.4,0,10.6,0.4,15.7,1.9v-1c0-9.4-3.4-14.1-13.6-14.1v-5.7l19.6-2.5c4.6-0.6,6.1,1,6.1,5.7
		v72.7c0,9.4,3.9,12.6,14.1,12.6v5.7l-19.6,2.5c-4.6,0.6-6.1-1-6.1-5.7v-4.5c-9.7,7.2-18.5,11.1-28.4,11.1
		c-19.4,0-30.5-12.4-30.5-35.3C657.6,1686.7,673.9,1671,700.4,1671z M691.7,1739.5c7.9,0,16.9-2.8,24.4-7v-48.6
		c-4.9-2.4-11.1-4.2-18.1-4.2c-20.6,0-27.7,10.6-27.7,32.3C670.3,1730.8,677.8,1739.5,691.7,1739.5z"/>
	<path fill="#FFFFFF" d="M821.1,1734.4l1.8,5.8c-8.7,6.1-19.7,9.4-31.1,9.4c-23.9,0-39-14.5-39-38.4s15.3-40.2,37.1-40.2
		c18.8,0,32.1,12.1,32.1,29.5l-54.9,20.3c3.9,12,13.9,17.8,29.2,17.8C803.9,1738.6,813.1,1737.1,821.1,1734.4z M765.7,1713.5
		l42-15.3c-0.6-12.3-7.9-18.8-19.1-18.8c-14.8,0-23.2,11.5-23.2,29.2C765.4,1710.3,765.6,1712,765.7,1713.5z"/>
	<path fill="#FFFFFF" d="M877.9,1742.5v5.7H835v-5.7c12-1.3,13.2-2.7,13.2-13.5v-38.9h-11.5v-8.8h10.6c-0.3-1.8-0.4-3.4-0.4-5.2
		c0-13.8,8.7-26.5,29.2-26.5c3.3,0,8.5,0.3,15,1l-1.8,12.9c-7.2-2.7-12.9-4.3-17.8-4.3c-8.5,0-13.3,3-13.3,12.1
		c0,2.8,0.4,6.1,1.3,10h27.5l-1.5,8.8h-25.1v38.9C860.2,1739.9,861.7,1741.1,877.9,1742.5z"/>
	<path fill="#FFFFFF" d="M968,1729.5c2.1,5.2,3,10.2,3,14.5c0,17.9-15.4,28.9-41.3,28.9c-10.5,0-22.4-1.8-30.4-4.3l1.2-10.9
		c7.5,2.4,27.2,5.5,38,5.5c13.5,0,20.9-4.9,20.9-15.8c0-4-1-8.8-3-14.4c-10.2,7.5-18.8,11.7-28.9,11.7c-19.3,0-30.2-12-30.2-33
		c0-25.4,15.8-40.5,43.2-40.5c6.7,0,18.7,2.2,27.4,6.9V1729.5z M931.3,1734.4c7.8,0,16.7-2.7,24.7-7.3v-42.5
		c-5.4-3-11.8-4.9-19.7-4.9c-18.4,0-26,10-26,29.3C910.2,1725.9,917.4,1734.4,931.3,1734.4z"/>
	<path fill="#FFFFFF" d="M1024,1742.5v5.7h-38.4v-5.7c12-1.3,13.2-2.7,13.2-13.5v-58.8c0-9-4.2-12.4-14.8-12.4v-5.7l20.8-2.5
		c4.5-0.6,6.1,1,6.1,5.7v28.6c7.6-7.5,18.8-12.9,29.9-12.9c14.5,0,24.2,9.1,24.2,25.6v32.4c0,10.8,1.2,12.1,13.2,13.5v5.7h-38.4
		v-5.7c12-1.3,13.2-2.7,13.2-13.5v-29.3c0-11.8-6-17.5-17.9-17.5c-8.8,0-17.3,3.1-24.1,8.4v38.4
		C1010.8,1739.8,1012,1741.1,1024,1742.5z"/>
	<path fill="#FFFFFF" d="M1126.2,1742.5v5.7h-38.4v-5.7c12-1.3,13.2-2.7,13.2-13.5v-36.8c0-9-4.2-12.4-14.8-12.4v-5.7l20.8-2.5
		c4.5-0.6,6.1,1,6.1,5.7v51.7C1113.1,1739.8,1114.3,1741.1,1126.2,1742.5z M1105.2,1639c5.1,0,9.3,4.2,9.3,9.1
		c0,5.1-4.2,9.3-9.3,9.3c-5.1,0-9.3-4.2-9.3-9.3C1095.9,1643.2,1100.1,1639,1105.2,1639z"/>
	<path fill="#FFFFFF" d="M1161.1,1744.4c0,25.3-28.4,28.7-38.6,28.3l-1.3-10.6c26.3,0,27.8-2.5,27.8-17.3v-53.8
		c0-8.1-4.2-11.1-16.3-11.1v-5.7l22.3-2.5c4.5-0.4,6.1,1,6.1,5.7V1744.4z M1153.1,1639c5.1,0,9.3,4.2,9.3,9.1c0,5.1-4.2,9.3-9.3,9.3
		c-5.1,0-9.3-4.2-9.3-9.3C1143.9,1643.2,1148.1,1639,1153.1,1639z"/>
	<path fill="#FFFFFF" d="M1215.8,1742.5v5.7h-37.1v-5.7c12-1.3,13.2-2.7,13.2-13.5v-58.8c0-9-4.2-12.4-14.8-12.4v-5.7l20.8-2.5
		c4.5-0.6,6.1,1,6.1,5.7v61.6c13.6-7.9,34.7-21.8,34.7-32.9c0-4.6-3.6-5.8-14.2-5.8v-5.7h22.9c4.8,0,6.1,1.3,6.1,5.4
		c0,7.9-9.4,18.7-24.2,29.8l14.7,22.4c7,10.8,9.1,11.8,18.4,12.4v5.7h-36.9v-5.7c9.9-0.7,10.3-1.9,4.8-10.8l-10.8-17.2
		c-4.8,3.3-10,6.4-15.4,9.6v4.9C1204,1739.8,1205.3,1741.1,1215.8,1742.5z"/>
	<path fill="#FFFFFF" d="M1307.5,1742.5v5.7H1269v-5.7c12-1.3,13.2-2.7,13.2-13.5v-58.8c0-9-4.2-12.4-14.8-12.4v-5.7l20.8-2.5
		c4.5-0.6,6.1,1,6.1,5.7v73.7C1294.3,1739.8,1295.5,1741.1,1307.5,1742.5z"/>
	<path fill="#FFFFFF" d="M1356.6,1742.5v5.7h-38.4v-5.7c12-1.3,13.2-2.7,13.2-13.5v-36.8c0-9-4.2-12.4-14.8-12.4v-5.7l20.8-2.5
		c4.5-0.6,6.1,1,6.1,5.7v6.4c7.2-7.5,17.6-12.7,28.1-12.7c10.5,0,18.1,5.1,21.4,14.5c7.2-8.4,18.4-14.5,29.8-14.5
		c13.9,0,23,9.1,23,25.6v32.4c0,10.8,1.2,12.1,13.2,13.5v5.7h-38.4v-5.7c12-1.3,13.2-2.7,13.2-13.5v-29.3c0-11.8-5.7-17.5-16.7-17.5
		c-8.4,0-16.4,3.1-22.7,8.5c0.3,1.8,0.4,3.7,0.4,5.8v32.4c0,10.8,1.2,12.1,13.2,13.5v5.7h-38.4v-5.7c12-1.3,13.2-2.7,13.2-13.5
		v-29.3c0-11.8-5.7-17.5-16.7-17.5c-8.2,0-16.1,3-22.3,8.1v38.7C1343.5,1739.8,1344.7,1741.1,1356.6,1742.5z"/>
	<path fill="#FFFFFF" d="M1507.1,1742.5v5.7h-38.4v-5.7c12-1.3,13.2-2.7,13.2-13.5v-36.8c0-9-4.2-12.4-14.8-12.4v-5.7l20.8-2.5
		c4.5-0.6,6.1,1,6.1,5.7v6.3c7.6-7.5,18.8-12.6,29.9-12.6c14.5,0,24.2,9.1,24.2,25.6v32.4c0,10.8,1.2,12.1,13.2,13.5v5.7h-38.4v-5.7
		c12-1.3,13.2-2.7,13.2-13.5v-29.3c0-11.8-6-17.5-17.9-17.5c-8.8,0-17.3,3-24.1,8.1v38.7C1493.9,1739.8,1495.1,1741.1,1507.1,1742.5
		z"/>
	<path fill="#FFFFFF" d="M532.3,1902.2c-17,0-24.8-11.8-24.8-31.5c0-28.3,19.1-47.1,41.6-47.1c17,0,24.8,11.8,24.8,31.5
		C573.8,1883.3,554.7,1902.2,532.3,1902.2z M550.2,1891c6.9-7,11.5-19.6,11.5-32.7c0-20.6-4.9-29.6-29.3-23.6
		c-8.1,6-12.9,18.2-12.9,32.9C519.5,1888.4,523.9,1898.6,550.2,1891z"/>
	<path fill="#FFFFFF" d="M585.6,1838.8l-1-5.1c9-7.5,15.6-10.2,20-10.2c6.7,0,9.1,5.7,8.5,10.5l-1.8,12.4
		c8.8-13.8,20.3-22.9,29.9-22.9c11.1,0,17.8,11.8,17.8,30.4c0,29.8-17.6,48.3-44.3,48.3c-3.6,0-7.2-0.3-10.9-0.9l-3.1,22.6l-12,0.7
		l12.4-90.5L585.6,1838.8z M609.7,1859.1l-4.3,30.7l20.8,4.5c9.7-3,20.6-12.9,20.6-37.4c0-14.7-3.4-23.2-10.2-23.2
		C629.4,1833.7,619.6,1843.1,609.7,1859.1z"/>
	<path fill="#FFFFFF" d="M725.3,1923.8l-12,0.9l6.4-45.5c-8.5,13.6-20,22.9-29,22.9c-12.6,0-18.5-12.7-18.5-30.7
		c0-30.7,19.6-48,44.4-48c6.6,0,15.3,1.5,22.1,3.6L725.3,1923.8z M695.4,1892c6.3,0,16.1-9.1,26.2-25.4l4.3-29.8l-18.7-5.5
		c-12,3.4-22.7,11.4-22.7,37.1C684.5,1882.4,687.3,1892,695.4,1892z"/>
	<path fill="#FFFFFF" d="M751.9,1838.8l-1-5.1c9-7.5,15.5-10.2,20-10.2c6.7,0,9.1,5.7,8.5,10.5l-1.9,15c6-8.7,14.8-19.1,26-25.7
		l6,11.4l-32.6,19l-6.3,47.1l-12,0.7l8.8-67.3L751.9,1838.8z"/>
	<path fill="#FFFFFF" d="M852.7,1883.3c0-19.3-35.1-19.1-35.1-38.9c0-12.3,10.9-20.9,30.5-20.9c7,0,12.9,1,20.8,3.9l-2.2,12.7
		l-24.1-9.1c-6.9,0-12.7,4.5-12.7,10.5c0,12.1,35.4,18.1,35.4,38.9c0,11.4-9.9,21.8-30.4,21.8c-8.2,0-16.3-1.6-23.9-5.1l2.1-12.3
		l24.7,9.7C849.5,1894.8,852.7,1889.5,852.7,1883.3z"/>
	<path fill="#FFFFFF" d="M925.1,1889.3l0.9,4.3c-5.1,3.6-16.7,8.5-24.5,8.5c-11.7,0-15.8-6.7-13.9-20.5l7-48.3h-11.4l1-7.5l11.8-0.7
		l3.3-19.1H910l-2.5,19h27.4l-2.1,8.4h-26.3l-7.8,58L925.1,1889.3z"/>
	<path fill="#FFFFFF" d="M1018.8,1886.6l1,5.1c-9,7.5-15.5,10.2-20,10.2c-6.7,0-9.1-5.7-8.5-10.5l2.1-14.7
		c-13,15.4-26.8,25.1-36.6,25.1c-8.2,0-12.6-8.2-10.5-20.9l7.5-46.8l-15.6,4.6l-1-5.1c9-7.5,15.6-10.2,20-10.2
		c6.7,0,9.3,5.7,8.5,10.5l-7,43.8c-1.6,10-0.3,12.7,5.1,12.7c6.4,0,17.2-7.8,31-23.5l5.8-42l12-0.7l-9.3,67L1018.8,1886.6z"/>
	<path fill="#FFFFFF" d="M1054.2,1901.4l-14.4-67.3l-13.5,4.3l-1-5.1c9-7.5,13.8-9.9,18.2-9.9c6.7,0,7.5,5.7,8.5,10.5l12.4,59.5
		l25-60.7l-14.4-1.2l0.9-5.7l17.8-1.5c7.5-0.6,8.1,5.2,6.3,9l-32.6,67.3L1054.2,1901.4z"/>
	<path fill="#FFFFFF" d="M1135.1,1901.4l-14.4-67.3l-13.5,4.3l-1-5.1c9-7.5,13.8-9.9,18.2-9.9c6.7,0,7.5,5.7,8.5,10.5l12.6,59.4
		l21.7-50.4l-1.8-8.8l-13.8,4.3l-1-5.1c9-7.5,13.8-9.9,18.2-9.9c6.7,0,7.5,5.7,8.5,10.5l12.6,59.5l24.8-60.7l-14.4-1.2l0.9-5.7
		l17.8-1.5c7.5-0.6,8.1,5.2,6.3,9l-32.6,67.3l-13.3,0.7l-9.7-46.5l-21.4,45.8L1135.1,1901.4z"/>
	<path fill="#FFFFFF" d="M1303.3,1885l2.2,4.2c-9.4,8.5-13.6,12.4-18.1,12.4c-3.9,0-5.4-3.1-7.9-7.9l-12.6-24.2l-18.2,24.4l13.8,1.2
		l-0.9,5.7l-17.8,1.5c-7.5,0.6-9.1-5.8-6.3-9l26.5-29.5l-15.4-29.5l-11.8,5.8l-2.2-4.2c9.4-8.5,13.6-12.4,18.1-12.4
		c3.9,0,5.4,3,7.9,7.9l12.6,23.9l19-23.5l-13.8-1.2l0.9-5.7l17.8-1.5c7.5-0.6,9.3,6,6.3,9l-27.2,28.4l15.6,29.8L1303.3,1885z"/>
	<path fill="#FFFFFF" d="M1310.2,1838.5l-1-5.1c9-7.5,13.8-9.9,18.2-9.9c6.7,0,7.3,5.7,8.5,10.5l13.3,51.9l24.2-53.1l-14.5-1.2
		l0.9-5.7l17.8-1.5c7.5-0.6,8.2,5.4,6.3,9l-32.6,61.3l-15,29.9l-15-0.7l19.4-24.8l-17.2-64.9L1310.2,1838.5z"/>
	<path fill="#FFFFFF" d="M1450.6,1900.7h-60.9l-1.3-4.3l51.7-64.4l-43.4,6l1.5-12.9h56.7l1.5,4.6l-50.8,64.4l46.5-6.3L1450.6,1900.7
		z"/>
</g>
<g>
	<path fill="#FFFFFF" d="M784.6,965.8c14.3,0,23,7.9,23,22c0,16.8-12.3,30-28.8,30h-28l0.4-3.4c5.9-0.7,7.3-1.8,7.8-6.3l4-32.6
		c0.7-5.3-0.6-5.6-6.3-6.3l0.4-3.4H784.6z M770.1,970.6l-5.3,42.4h13.5c12.9,0,22.4-10.6,22.4-24.5c0-11.4-6.4-17.9-17.2-17.9H770.1
		z"/>
	<path fill="#FFFFFF" d="M843.5,1013.6c-5.4,3.4-10.2,5-14.9,5c-9.1,0-14.3-6.4-14.3-16.9c0-14.5,9.8-25.4,19.8-25.2
		c8.4,0.1,14.2,8.7,13.5,15.8l-26.8,9.3c0.4,7.3,3.8,11.6,10.3,11.6c2.9,0,6.4-0.7,11.4-2.4L843.5,1013.6z M820.9,997.7l20.1-7.1
		c-1.5-5.3-4.6-8.8-9-9.9C826.9,980.6,821.8,988.3,820.9,997.7z"/>
	<path fill="#FFFFFF" d="M874,1008.5c0-10.3-18.8-10.2-18.8-20.8c0-6.6,5.8-11.2,16.3-11.2c3.8,0,6.9,0.6,11.1,2.1l-1.2,6.8
		l-12.9-4.9c-3.7,0-6.8,2.4-6.8,5.6c0,6.5,19,9.7,19,20.8c0,6.1-5.3,11.7-16.2,11.7c-4.4,0-8.7-0.9-12.8-2.7l1.1-6.6l13.2,5.2
		C872.4,1014.7,874,1011.8,874,1008.5z"/>
	<path fill="#FFFFFF" d="M907.2,1010.3l0.6,2.7c-4.8,4-8.3,5.4-10.7,5.4c-3.6,0-4.9-3-4.6-5.6l4-30.6l-8.3,2.5l-0.6-2.7
		c4.8-4,8.3-5.4,10.7-5.4c3.6,0,4.9,3,4.6,5.6l-4,30.6L907.2,1010.3z M906.1,963.7c0,2.9-2.7,5.6-5.7,5.6c-2.4,0-4.2-1.8-4.2-4.2
		c0-2.9,2.8-5.6,5.7-5.6C904.3,959.4,906.1,961.3,906.1,963.7z"/>
	<path fill="#FFFFFF" d="M937.4,1024.9l3-21.1c-4.9,7.7-11.4,12.1-16.9,12.1c-6.6,0-10-6.3-10-16.2c0-14.2,9-23.2,23.1-23.2
		c4.2,0,9.8,0.8,13.4,1.9l-3.8,29.5c-2.4,18.6-6.2,22.2-20.7,22.2c-5.8,0-11.2-0.6-15-1.5l0.7-5.6L937.4,1024.9z M925.9,1010.5
		c4.1,0,9.6-4.5,15.5-14.2l1.8-12.5l-13.1-2.8c-5.1,2-10,6.9-10,16.9C920,1005.7,921.6,1010.5,925.9,1010.5z"/>
	<path fill="#FFFFFF" d="M989.4,989.4c0.9-5.4,0.2-6.8-2.7-6.8c-3.4,0-9.1,4.2-16.4,12.5l-3,22.7l-6.4,0.4l4.7-36l-8.3,2.5l-0.6-2.7
		c4.8-4,8.3-5.4,10.7-5.4c3.6,0,4.9,3,4.6,5.6l-1,7.8c6.9-8.2,14.2-13.4,19.5-13.4c4.4,0,6.6,4.4,5.6,11.2l-4.1,25l8.3-2.5l0.6,2.7
		c-4.8,4-8.3,5.4-10.7,5.4c-3.6,0-5-3-4.6-5.6L989.4,989.4z"/>
	<path fill="#FFFFFF" d="M1035.7,1013.6c-5.4,3.4-10.2,5-14.9,5c-9.1,0-14.3-6.4-14.3-16.9c0-14.5,9.8-25.4,19.8-25.2
		c8.4,0.1,14.2,8.7,13.5,15.8l-26.8,9.3c0.4,7.3,3.8,11.6,10.3,11.6c2.9,0,6.4-0.7,11.4-2.4L1035.7,1013.6z M1013.2,997.7l20.1-7.1
		c-1.5-5.3-4.6-8.8-9-9.9C1019.2,980.6,1014,988.3,1013.2,997.7z"/>
	<path fill="#FFFFFF" d="M1084.8,1010.3l0.6,2.7c-4.8,4-8.3,5.4-10.7,5.4c-3.6,0-4.9-3-4.6-5.6l1-7.4c-4.6,7.8-10.8,13.2-16.2,13.2
		c-6.3,0-9.5-6.8-9.5-16.4c0-16.4,10.5-25.7,23.4-25.7c2,0,4.1,0.2,6.2,0.6l0.9-6.4l-8.3,0.1l-0.3-2.7c5.2-2.2,8.1-3,10.5-3
		c3.6,0,4.9,3,4.6,5.6l-5.8,42.2L1084.8,1010.3z M1057.5,1013.2c3.9,0,9.1-5.4,14.6-14.5l2.1-15l-10.3-3
		c-6.4,1.8-11.8,6.1-11.8,19.8C1052,1008.1,1053.6,1013.2,1057.5,1013.2z"/>
	<path fill="#FFFFFF" d="M1107.8,970.8l-0.3-2.7c5.2-2.2,8.1-3,10.5-3c3.6,0,4.9,3,4.6,5.6l-2.6,17.9c4.7-7.3,10.8-12,15.8-12
		c5.9,0,9.5,6.3,9.5,16.2c0,15.9-9.4,25.8-23.7,25.8c-3.8,0-7.8-0.6-11.9-1.9l6.4-46L1107.8,970.8z M1119.1,995.3l-2.4,16.8l11,2.2
		c5.2-1.6,11-6.8,11-19.9c0-7.8-1.8-12.4-5.4-12.4C1129.6,982,1124.4,986.9,1119.1,995.3z"/>
	<path fill="#FFFFFF" d="M1149.6,984.5l-0.6-2.7c4.8-4,7.4-5.3,9.8-5.3c3.6,0,3.9,3,4.6,5.6l7.1,27.8l13-28.4l-7.8-0.6l0.5-3
		l9.5-0.8c4-0.3,4.4,2.9,3.4,4.8l-17.4,32.8l-8,16l-8-0.4l10.4-13.3l-9.2-34.7L1149.6,984.5z"/>
	<path fill="#FFFFFF" d="M724,1108.1v5.8h-24.8v-5.8c5.6-0.6,7.2-1.4,7.2-6.3v-27.8c0-4.9-1.6-5.7-7.2-6.3v-5.8h19.5l25.1,33.8h0.5
		v-21.7c0-4.7-2.5-5.7-8.8-6.3v-5.8h24.8v5.8c-5.6,0.6-7.2,1.4-7.2,6.3v39.9l-11.3,0.8l-26.2-35.3h-0.5v22.4
		C715.2,1106.5,717.6,1107.4,724,1108.1z"/>
	<path fill="#FFFFFF" d="M789.1,1108.9v5h-25.5v-5c5.6-0.6,6.4-1.4,6.4-6.3v-16.7c0-4.8-2.2-6.6-7.9-6.6v-5l17.4-1.4
		c2.4-0.2,3.3,0.6,3.3,3v26.6C782.7,1107.3,783.6,1108.2,789.1,1108.9z M776.4,1053c4.3,0,7.8,3.5,7.8,7.8s-3.5,7.8-7.8,7.8
		c-4.4,0-7.9-3.5-7.9-7.8S772,1053,776.4,1053z"/>
	<path fill="#FFFFFF" d="M815,1108.9v5h-23.7v-5c5.6-0.6,6.4-1.4,6.4-6.3v-28.5c0-4.8-2.2-6.6-7.9-6.6v-5l17.4-1.4
		c2.4-0.2,3.3,0.6,3.3,3v29.8c6.5-3.4,14.8-8.2,14.8-12.6c0-2.5-2.6-3-6.4-3v-5h15.8c2.8,0,3.6,0.7,3.6,2.9c0,4.1-5,9.4-13,15.1
		l8.2,11.8c2.8,4.1,4.1,5.4,7.7,5.7v5h-22.7v-5c2.4-0.1,3.9-1,1.1-5l-4.3-6.2c-1.5,0.9-3.1,1.8-4.7,2.7v2.1
		C810.4,1108.1,810.5,1108.5,815,1108.9z"/>
	<path fill="#FFFFFF" d="M865.9,1072.5c12.9,0,21.8,7.7,21.8,19.5c0,12.8-10.5,22.6-24.6,22.6c-12.6,0-21.4-7.7-21.4-19.7
		C841.7,1082.4,851.5,1072.5,865.9,1072.5z M864.5,1106.2c6,0,9.4-4.6,9.4-12.6c0-7.8-3.4-12.7-9.1-12.7c-6,0-9.4,5.1-9.4,13
		C855.5,1101.6,858.7,1106.2,864.5,1106.2z"/>
	<path fill="#FFFFFF" d="M916.6,1108.9v5h-25.5v-5c5.6-0.6,6.4-1.4,6.4-6.3v-28.5c0-4.8-2.2-6.6-7.9-6.6v-5l17.4-1.4
		c2.4-0.2,3.3,0.6,3.3,3v38.4C910.2,1107.3,911.1,1108.2,916.6,1108.9z"/>
	<path fill="#FFFFFF" d="M962.3,1106.2c1.1,0,2.3-0.3,3-0.6l-0.4,5.9c-2.3,2.1-5.1,3.1-8.5,3.1c-5.4,0-9.1-2.8-9.5-7.7
		c-2.9,3.5-8.2,7.7-15.4,7.7c-6.1,0-11.4-3-11.4-10.5c0-7.5,5.6-10.6,16.2-13.2l10.5-2.5c-0.2-3.4-2.6-5.1-9-5.1
		c-4.6,0-10.4,0.9-15,2L922,1075c6.2-1.7,11.7-2.5,17.3-2.5c13,0,20.2,4.2,20.2,12.8v18.4C959.5,1105.3,960.4,1106.2,962.3,1106.2z
		 M938.3,1105.2c3.3,0,6.3-1.5,8.5-3.4v-8.2l-7,1.7c-3.7,0.9-6.2,2.1-6.2,5.7C933.6,1104,935.4,1105.2,938.3,1105.2z"/>
	<path fill="#FFFFFF" d="M984.5,1061.8h29c17.4,0,28,6.5,28,23.6c0,17.4-11,28.4-28,28.4h-29v-5.8c5.6-0.6,7.2-1.4,7.2-6.3v-27.8
		c0-4.9-1.6-5.7-7.2-6.3V1061.8z M1004.6,1070.6v34.4h7.3c12.1,0,16.7-7.8,16.7-17.4c0-9-3.9-17-16.7-17H1004.6z"/>
	<path fill="#FFFFFF" d="M1065,1111.9c0,11.5-14.9,15.1-23.8,15.1l-1.1-10c13,1.2,12.2-1.6,12.2-5.7V1085c0-4.2-2.2-5.8-8.7-5.8v-5
		l18.2-1.4c2.4-0.2,3.3,0.6,3.3,3V1111.9z M1058.7,1053c4.3,0,7.8,3.5,7.8,7.8s-3.5,7.8-7.8,7.8c-4.4,0-7.9-3.5-7.9-7.8
		S1054.3,1053,1058.7,1053z"/>
	<path fill="#FFFFFF" d="M1090.4,1095.3c0,6.6,2.6,9.1,7.1,9.1c3.3,0,6.8-1.2,9.5-3.1v-15.5c0-4.8-2.2-6.6-7.9-6.6v-5l17.4-1.4
		c2.4-0.2,3.3,0.6,3.3,3v25.4c0,4.8,2.2,6.6,7.9,6.6v5l-17.4,1.4c-2.4,0.2-3.3-0.6-3.3-3v-4.8c-4.4,5.2-9.8,8.2-15.8,8.2
		c-8.3,0-13.5-5.3-13.5-14.6v-14.2c0-4.8-2.2-6.6-7.9-6.6v-5l17.4-1.4c2.4-0.2,3.3,0.6,3.3,3V1095.3z"/>
	<path fill="#FFFFFF" d="M1158.2,1108.9v5h-27.9v-5c5.6-0.6,6.4-1.4,6.4-6.3v-16.7c0-4.8-2.2-6.6-7.9-6.6v-5l17.4-1.4
		c2.4-0.2,3.3,0.6,3.3,3v6.3c3.8-5.6,8.5-9.7,13.4-9.7c0.6,0,1.8,0,2.5,0.1l-0.5,13c-1.6-0.2-3.8-0.3-5.8-0.3
		c-3.3,0-6.8,0.4-9.6,2.4v14.8C1149.4,1107.3,1150.6,1108.2,1158.2,1108.9z"/>
	<path fill="#FFFFFF" d="M1206.9,1104.4l1.1,5.8c-5.1,2.9-11.3,4.5-17.8,4.5c-13.8,0-22.3-7.1-22.3-19.3c0-13.1,9.8-22.8,23.1-22.8
		c11.2,0,18.2,7,18.2,17.8l-26,9.7c2.4,4.1,7,5.9,13.8,5.9C1200.8,1106,1203.3,1105.5,1206.9,1104.4z M1181.6,1094.7l14.5-5.8
		c0-5.2-2.5-8-7-8c-5.1,0-7.7,3.5-7.7,10.6C1181.3,1092.6,1181.4,1093.7,1181.6,1094.7z"/>
	<path fill="#FFFFFF" d="M1235.5,1108.9v5h-23.7v-5c5.6-0.6,6.4-1.4,6.4-6.3v-28.5c0-4.8-2.2-6.6-7.9-6.6v-5l17.4-1.4
		c2.4-0.2,3.3,0.6,3.3,3v29.8c6.5-3.4,14.8-8.2,14.8-12.6c0-2.5-2.6-3-6.4-3v-5h15.8c2.8,0,3.6,0.7,3.6,2.9c0,4.1-5,9.4-13,15.1
		l8.2,11.8c2.8,4.1,4.1,5.4,7.7,5.7v5h-22.7v-5c2.4-0.1,3.9-1,1.1-5l-4.3-6.2c-1.5,0.9-3.1,1.8-4.7,2.7v2.1
		C1230.9,1108.1,1231,1108.5,1235.5,1108.9z"/>
</g>
</svg>
