<svg xmlns="http://www.w3.org/2000/svg" viewBox="0 0 223.623 149.025"><g data-name="Layer 2"><g data-name="ART"><path d="M190.956 83.706l20.206-3.565s-2.315 13.118 5.739 20.688a1.627 1.627 0 01-.486 2.67l-101.169 43.83a11.138 11.138 0 01-10.332-.78c-14.11-8.82-55.991-33.995-91.636-45.282a11.874 11.874 0 01-8.339-11.302V85.54A11.831 11.831 0 0117.45 73.728z" fill="#eae4c9"/><path d="M110.824 149.025a11.927 11.927 0 01-6.323-1.815c-15.83-9.895-56.432-34.11-91.458-45.2A12.619 12.619 0 014.16 89.965V85.54a12.611 12.611 0 0113.335-12.59l173.415 9.973 21.212-3.743-.193 1.096c-.022.127-2.14 12.8 5.506 19.985a2.376 2.376 0 01.712 2.146 2.415 2.415 0 01-1.422 1.806l-101.169 43.83a11.9 11.9 0 01-4.732.982zM16.75 74.488A11.053 11.053 0 005.719 85.54v4.425a11.064 11.064 0 007.794 10.559c35.197 11.145 75.933 35.437 91.814 45.364a10.369 10.369 0 009.61.726l101.169-43.83a.85.85 0 00.506-.645.812.812 0 00-.245-.743c-6.987-6.567-6.499-16.922-6.122-20.302l-19.243 3.396-.09-.005-173.507-9.978q-.329-.019-.655-.02z" fill="#3e4147"/><path d="M114.969 143.322a3.272 3.272 0 01-3.262-3.416l.514-12.176a.764.764 0 01.811-.745.779.779 0 01.746.811l-.514 12.176a1.696 1.696 0 00.705 1.465 1.679 1.679 0 001.59.22c20.359-7.532 98.18-43.503 98.964-43.866a.779.779 0 11.654 1.414c-.784.364-78.661 36.36-99.077 43.913a3.245 3.245 0 01-1.131.204z" fill="#3e4147"/><path d="M121.194 133.99a.78.78 0 01-.283-1.506c42.494-16.513 90.62-39.253 91.102-39.48a.779.779 0 11.666 1.407c-.481.229-48.657 22.992-91.203 39.526a.775.775 0 01-.282.053z" fill="#3e4147"/><path d="M221.037 39.834C206.277 36.318 156.678 19.294 118.91.78L7.796 56.237A11.783 11.783 0 00.78 67.012v.546A11.775 11.775 0 007.947 78.4c19.132 8.13 71.761 31.076 98.499 48.542a11.056 11.056 0 0010.045 1.028c17.814-6.904 74.686-29.649 103.698-49.512a2.353 2.353 0 00.377-3.567l-4.055-4.258 2.359-2.36a2.352 2.352 0 00-.138-3.452l-8.032-3.96 10.436-6.729a2.352 2.352 0 00.338-3.68l-3.478-3.294 3.97-3.207a2.35 2.35 0 00-.929-4.116z" fill="#fff8e9"/><path d="M112.464 129.501a11.778 11.778 0 01-6.444-1.907c-26.39-17.24-77.59-39.645-98.378-48.478A12.537 12.537 0 010 67.558v-.545a12.572 12.572 0 017.48-11.49L118.563.084a.775.775 0 01.691-.003c37.76 18.51 87.164 35.47 101.965 38.996a3.13 3.13 0 011.238 5.48l-3.277 2.647 2.83 2.683a3.13 3.13 0 01-.45 4.898l-9.28 5.985 6.797 3.351a.806.806 0 01.161.107 3.13 3.13 0 01.184 4.596l-1.822 1.823 3.53 3.707a3.131 3.131 0 01-.5 4.747c-29.194 19.988-86.873 43.014-103.856 49.596a11.918 11.918 0 01-4.31.805zm6.45-127.852L8.144 56.934a11.026 11.026 0 00-6.586 10.079v.545a10.983 10.983 0 006.694 10.125c20.826 8.849 72.125 31.299 98.62 48.606a10.301 10.301 0 009.338.953c16.943-6.565 74.483-29.534 103.54-49.427a1.574 1.574 0 00.252-2.388l-4.055-4.258a.779.779 0 01.013-1.088l2.359-2.359a1.573 1.573 0 00-.027-2.251l-7.936-3.912a.78.78 0 01-.078-1.355l10.436-6.728a1.572 1.572 0 00.224-2.46l-3.477-3.294a.78.78 0 01.046-1.172l3.97-3.206a1.57 1.57 0 00-.62-2.752c-14.813-3.53-64.128-20.45-101.943-38.943z" fill="#3e4147"/><path d="M116.091 121.902a4.433 4.433 0 01-4.394-4.837l.6-6.533a4.42 4.42 0 012.296-3.481c55.971-30.48 103.4-60.965 103.873-61.27a.78.78 0 01.844 1.311c-.473.305-47.95 30.82-103.972 61.328a2.864 2.864 0 00-1.49 2.255l-.6 6.532a2.864 2.864 0 003.989 2.896c17.724-7.683 62.84-27.946 98.865-50.134a.779.779 0 01.817 1.326c-36.11 22.241-81.307 42.542-99.063 50.237a4.425 4.425 0 01-1.765.37z" fill="#3e4147"/><path d="M117.263 113.83a.78.78 0 01-.342-1.481c.58-.281 58.325-28.442 97.494-54.81a.78.78 0 11.87 1.292c-39.26 26.431-97.102 54.638-97.682 54.92a.784.784 0 01-.34.078zM104.047 106.2a.776.776 0 01-.377-.097c-.53-.295-53.426-29.551-85.506-38.78a.78.78 0 01.43-1.498c32.25 9.278 85.3 38.62 85.832 38.915a.78.78 0 01-.379 1.46zM104.047 97.283a.78.78 0 01-.375-.096c-.477-.263-47.999-26.387-79.655-36.939a.78.78 0 01.492-1.478c31.792 10.597 79.438 36.789 79.915 37.052a.78.78 0 01-.377 1.461zM119.312 91.608a2.717 2.717 0 01-1.207-.282L89.544 77.18a2.718 2.718 0 01.087-4.913l23.062-10.414a2.697 2.697 0 012.334.045l27.348 13.674a2.718 2.718 0 01-.003 4.864l-21.848 10.887a2.715 2.715 0 01-1.212.285zM90.235 75.783l28.562 14.147a1.168 1.168 0 001.032-.001l21.848-10.888a1.16 1.16 0 000-2.076L114.33 63.292a1.158 1.158 0 00-.996-.02L90.273 73.688a1.16 1.16 0 00-.038 2.096zM104.047 60.288a.774.774 0 01-.338-.077L66.714 42.382a.78.78 0 01.677-1.404l36.995 17.829a.78.78 0 01-.339 1.481zM95.133 62.962a.773.773 0 01-.335-.076L56.466 44.612a.779.779 0 11.67-1.407L95.469 61.48a.78.78 0 01-.336 1.482zM85.55 68.31a.77.77 0 01-.33-.073L45.326 49.516a.779.779 0 11.662-1.41l39.892 18.72a.78.78 0 01-.331 1.485zM157.089 72.768a.776.776 0 01-.336-.076L75.631 33.914a.78.78 0 01.672-1.406l81.122 38.777a.78.78 0 01-.336 1.483zM165.112 65.637a.779.779 0 01-.32-.07L85.897 29.91a.78.78 0 11.642-1.42l78.893 35.659a.78.78 0 01-.321 1.489z" fill="#3e4147"/><path d="M180.138 40.205c-32.563-8.062-42.809-22.49-42.809-22.49-19.39 3.688-20.962 12.522-20.962 12.522 9.334-.7 27.39 4.65 27.39 4.65-7.994 6.635 2.701 9.185 2.701 9.185 10.145 4.156 15.93-5.2 15.93-5.2a121.743 121.743 0 0115.3 4.422c4.65-.572 2.45-3.089 2.45-3.089zm-32.292 2.207s-9.013-2.78-1.623-7.455l13.434 3.247s-4.968 6.137-11.81 4.208z" fill="#df642f"/></g></g></svg>
